<?xml version="1.0" standalone="no"?>
<!DOCTYPE svg PUBLIC "-//W3C//DTD SVG 20010904//EN"
 "http://www.w3.org/TR/2001/REC-SVG-20010904/DTD/svg10.dtd">
<svg version="1.0" xmlns="http://www.w3.org/2000/svg"
 width="180.000000pt" height="180.000000pt" viewBox="0 0 180.000000 180.000000"
 preserveAspectRatio="xMidYMid meet">
<metadata>
Created by potrace 1.11, written by Peter Selinger 2001-2013
</metadata>
<g transform="translate(0.000000,180.000000) scale(0.100000,-0.100000)"
fill="#000000" stroke="none">
<path d="M1145 1510 c31 -61 70 -153 88 -203 27 -81 31 -105 31 -197 0 -68 -6
-130 -18 -177 l-18 -72 -27 14 c-110 56 -453 333 -675 542 -36 35 -66 61 -66
58 0 -19 249 -346 369 -484 l56 -65 -95 64 c-52 36 -97 67 -100 70 -3 3 -41
33 -85 66 -44 32 -132 102 -195 154 -163 135 -159 131 -130 90 160 -232 425
-526 638 -704 45 -38 82 -71 82 -72 0 -9 -124 -58 -185 -74 -66 -17 -206 -20
-271 -6 -12 2 -37 7 -56 10 -20 3 -47 10 -62 15 -14 6 -26 9 -26 7 0 -3 -34 9
-76 25 -83 32 -157 71 -192 102 -12 11 -22 17 -22 13 0 -32 206 -242 296 -303
191 -129 377 -186 594 -182 123 2 175 16 290 74 123 62 196 71 262 32 24 -14
63 -46 87 -72 24 -26 45 -44 49 -41 3 3 5 41 5 84 0 97 -29 190 -87 276 l-42
62 12 60 c16 77 15 182 -1 269 -48 252 -194 469 -428 636 l-58 41 56 -112z"/>
</g>
</svg>
